<?xml version="1.0" encoding="UTF-8"?>
<!DOCTYPE svg PUBLIC "-//W3C//DTD SVG 1.1//EN" "http://www.w3.org/Graphics/SVG/1.1/DTD/svg11.dtd">
<!-- Creator: CorelDRAW 2020 (64-Bit) -->
<svg xmlns="http://www.w3.org/2000/svg" xml:space="preserve" width="6.86231in" height="2.26611in" version="1.1" style="shape-rendering:geometricPrecision; text-rendering:geometricPrecision; image-rendering:optimizeQuality; fill-rule:evenodd; clip-rule:evenodd"
viewBox="0 0 6862.31 2266.11"
 xmlns:xlink="http://www.w3.org/1999/xlink"
 xmlns:xodm="http://www.corel.com/coreldraw/odm/2003">
 <defs>
  <style type="text/css">
   <![CDATA[
    .fil0 {fill:#2B2A29}
    .fil1 {fill:#E31E24}
   ]]>
  </style>
 </defs>
 <g id="Capa_x0020_1">
  <metadata id="CorelCorpID_0Corel-Layer"/>
  <g id="_1196380464">
   <path class="fil0" d="M1435 1079.57l325.04 860.52 -834.15 0 -400.1 0c83.16,-83.8 191.19,-191.39 277.9,-273.44l464.78 5.55 -129.63 -389.16c58.07,-45.14 179.04,-135.91 296.17,-203.47z"/>
   <path class="fil0" d="M1083.67 149.52l205.15 543.11c-85.07,46.76 -235.79,143.78 -287.59,177.4l-67.62 -203.01 -25.15 56.7c-24.46,0.6 -76.7,9.51 -187.67,47.28 -87.42,29.76 -161.87,57.76 -217.57,79.67l5.56 -14.72 259.3 -686.43 315.59 0z"/>
   <path class="fil1" d="M472.42 932.23c0,0 141.42,-72.09 263.69,-109.02 122.26,-36.93 147.13,-42.57 147.13,-42.57l-89.82 332.94c0,0 255.97,-261.07 699.16,-472.48 443.19,-211.41 970.43,-152.82 1199.66,-66.22 229.24,86.59 267.44,119.71 267.44,119.71 0,0 -443.19,-226.69 -993.35,-30.56 -550.17,196.12 -1133.44,751.37 -1459.46,1074.85 -326.02,323.48 -506.86,527.24 -506.86,527.24 0,0 445.34,-1262.19 472.42,-1333.89z"/>
   <path class="fil0" d="M3561.02 902.2l745.99 1037.89 -411.21 0 -543.47 -749.96 -333.07 466.72 502.8 0 205.3 283.23 -375.02 0 -946.18 0 172.22 -242.38c257.57,-0.4 467.97,-211.03 467.97,-468.69 0,-53.67 -9.15,-105.28 -25.94,-153.38l123.24 -173.44c48.12,-67.73 125.61,-95.93 208.69,-95.93 83.08,0 160.2,28.46 208.69,95.93z"/>
   <path class="fil0" d="M4237.56 812.54l1173.76 0 -215.68 272.65 -869.5 0c-48.72,0 -88.57,39.86 -88.57,88.57 0,48.73 39.86,88.57 88.57,88.57l749.38 0c443.87,0 440.86,677.76 -3.07,677.76l-1173.76 0 215.68 -272.65 869.52 0c48.72,0 88.56,-39.85 88.56,-88.56l0 0c0,-48.72 -39.85,-88.59 -88.56,-88.59l-746.32 0c-147.59,0 -273.9,-95.62 -320.1,-227.96l-0.12 -0.34 -1.52 -4.46 -0.03 -0.11 -0.54 -1.63 -0.53 -1.65 -1.48 -4.74 -1.17 -3.92 -0.95 -3.34 -1.33 -4.87 -0.75 -2.88 -1.23 -5.03 -0.8 -3.42 -1.12 -5.13 -0.52 -2.51c-0.4,-1.97 -0.78,-3.93 -1.15,-5.91l-0.44 -2.47c-0.37,-2.2 -0.75,-4.39 -1.09,-6.58l-0.18 -1.22c-0.37,-2.37 -0.71,-4.76 -1,-7.13l-0.08 -0.55 0 -0.02 -0.06 -0.4c-0.32,-2.49 -0.6,-5 -0.86,-7.51l-0.07 -0.54 -0.04 -0.39c-0.53,-5.33 -0.95,-10.69 -1.24,-16.07l-0.04 -0.72 -0.01 -0.31c-0.13,-2.65 -0.23,-5.31 -0.31,-7.98l-0.01 -0.35 0 -0.19c-0.06,-2.84 -0.11,-5.67 -0.11,-8.54 0,-186.37 152.5,-338.87 338.87,-338.87z"/>
   <polygon class="fil0" points="4586.37,1666.1 4043.78,1666.1 4043.78,1802.43 4586.37,1802.43 "/>
   <path class="fil0" d="M5691.8 812.54l1170.51 0 -215.68 272.65 -866.26 0c-48.72,0 -88.57,39.86 -88.57,88.57 0,48.73 39.86,88.57 88.57,88.57l749.39 0c443.85,0 440.85,677.76 -3.09,677.76l-518.29 0 -655.46 0 -75.48 0c55.9,-30.41 103.23,-75.89 137.6,-136.52 24.07,-42.43 39.83,-89.3 47.35,-137.47l546 0 0 1.34 429.72 0c48.72,0 88.58,-39.85 88.58,-88.56l0 0c0,-48.72 -39.86,-88.59 -88.58,-88.59l-746.31 0c-147.59,0 -273.91,-95.62 -320.11,-227.96l-0.12 -0.34 -1.52 -4.46 -0.03 -0.11 -0.54 -1.63 -0.53 -1.65 -1.48 -4.74 -1.17 -3.92 -0.95 -3.34 -1.33 -4.87 -0.75 -2.88 -1.23 -5.03 -0.8 -3.42 -1.12 -5.13 -0.52 -2.51c-0.4,-1.97 -0.78,-3.93 -1.14,-5.91l-0.44 -2.47c-0.39,-2.2 -0.76,-4.39 -1.09,-6.58l-0.19 -1.22c-0.37,-2.37 -0.7,-4.76 -1.01,-7.13l-0.07 -0.55 0 -0.02 -0.05 -0.4c-0.32,-2.49 -0.61,-5 -0.87,-7.51l-0.07 -0.54 -0.04 -0.39c-0.53,-5.33 -0.95,-10.69 -1.24,-16.07l-0.04 -0.7 -0.01 -0.32c-0.13,-2.65 -0.23,-5.31 -0.31,-7.98l-0.01 -0.35 0 -0.19c-0.07,-2.84 -0.11,-5.67 -0.11,-8.54 0,-186.37 152.5,-338.87 338.88,-338.87z"/>
   <path class="fil0" d="M2291.24 819.32l286.12 0c225.37,0 409.72,184.36 409.72,409.7l0 0.01c0,225.34 -184.35,409.7 -409.72,409.7l-704.43 0 0 301.35 -26 0 -219.07 -579.97 245.07 0 670.58 0c59.22,0 107.67,-48.44 107.67,-107.64l0 -46.91c0,-59.21 -48.45,-107.66 -107.67,-107.66l-764.32 0 512.05 -278.59z"/>
   <path class="fil0" d="M1055.51 88.7l28.16 60.82 70.02 185.38 -210.38 -163.4 -321.35 364.87 146.13 -386.85 25.02 -59.11c23.07,-54.5 71.45,-90.02 130.62,-90.41 59.17,-0.39 106.93,35.02 131.79,88.69z"/>
  </g>
 </g>
</svg>
